# File created by Blade
# Date/Time:  Tue Jan 27 18:01:49 2015
# Frame Rate: 120.000 fps
#------------------------------------------------------
:FULLY-SPECIFIED
:DEGREES
2032
root -1.563599 31.894090 -5.571701 7.944251 21.401085 4.602923
Spine -6.910375 -8.977698 -6.005626
Head 1.443710 -32.302231 2.082179
LeftShoulder -12.308240 14.831829 9.048471
LeftArm 24.431011 41.997770 -73.495088
LeftForeArm -1.707252 -0.000000 11.400744
LeftHand -11.345259 -0.000000 -6.549969
LeftHandThumb1 -26.253704 0.000000 33.147579
RightShoulder -19.843377 30.654629 -56.332862
RightArm 57.599089 61.682852 63.247280
RightForeArm 28.410137 -0.000000 17.362380
RightHand -15.137703 0.000000 -2.694048
RightHandThumb1 -24.326973 -0.000000 -32.862282
LeftUpLeg -2.822931 -8.576494 0.043509
LeftLeg 0.293312 -0.000000 -0.000000
LeftFoot -13.958470 11.081197 -24.304108
LeftToeBase 8.675382 -0.000000 -0.000000
RightUpLeg 3.857803 -12.128555 -2.692540
RightLeg -3.740837 -0.000000 0.000000
RightFoot -17.693750 -19.387825 11.481621
RightToeBase 5.201859 -0.000000 -0.000000
2033
root -1.567789 31.892370 -5.568682 7.891660 21.232098 4.553448
Spine -6.930438 -9.000934 -6.113199
Head 1.496919 -32.858392 2.175090
LeftShoulder -12.304476 14.779284 9.148845
LeftArm 24.330842 42.087604 -73.580941
LeftForeArm -1.671060 -0.000000 11.334401
LeftHand -11.433318 -0.000000 -6.549565
LeftHandThumb1 -26.253704 0.000000 33.147579
RightShoulder -19.852680 30.600573 -56.302167
RightArm 56.784909 60.978222 62.612024
RightForeArm 29.233267 -0.000000 15.070737
RightHand -16.701141 0.000000 -4.654370
RightHandThumb1 -24.326973 -0.000000 -32.862282
LeftUpLeg -2.763671 -8.486194 0.070339
LeftLeg 0.290625 -0.000000 -0.000000
LeftFoot -14.031770 11.150299 -24.290376
LeftToeBase 8.660420 -0.000000 -0.000000
RightUpLeg 3.856448 -12.065789 -2.666641
RightLeg -3.718867 -0.000000 0.000000
RightFoot -17.673213 -19.278075 11.437564
RightToeBase 5.193524 -0.000000 -0.000000
2034
root -1.571544 31.891326 -5.567117 7.841393 21.046503 4.506318
Spine -6.954470 -8.997926 -6.211288
Head 1.565944 -33.404223 2.218414
LeftShoulder -12.324244 14.782740 9.222097
LeftArm 24.358069 42.185110 -73.582405
LeftForeArm -1.610387 -0.000000 11.241223
LeftHand -11.430472 -0.000000 -6.332903
LeftHandThumb1 -26.253704 0.000000 33.147579
RightShoulder -19.847028 30.719180 -56.319855
RightArm 56.082088 60.420701 62.413237
RightForeArm 30.267357 -0.000000 13.475427
RightHand -18.547862 -0.000000 -6.679281
RightHandThumb1 -24.326973 -0.000000 -32.862282
LeftUpLeg -2.711906 -8.377814 0.086899
LeftLeg 0.311059 -0.000000 -0.000000
LeftFoot -14.133707 11.205196 -24.352994
LeftToeBase 8.715412 -0.000000 -0.000000
RightUpLeg 3.841847 -11.979527 -2.645810
RightLeg -3.680237 -0.000000 0.000000
RightFoot -17.660188 -19.190175 11.402867
RightToeBase 5.185549 -0.000000 -0.000000
2035
root -1.577852 31.890595 -5.566977 7.798103 20.858867 4.443247
Spine -7.002607 -8.962646 -6.283505
Head 1.625889 -33.896947 2.245256
LeftShoulder -12.270981 14.825247 9.298037
LeftArm 24.428875 42.292356 -73.538862
LeftForeArm -1.701104 -0.000000 11.140024
LeftHand -11.364972 -0.000000 -6.246966
LeftHandThumb1 -26.253704 0.000000 33.147579
RightShoulder -19.661777 30.749965 -56.235731
RightArm 55.566317 60.194774 62.672234
RightForeArm 31.695757 0.000000 12.790510
RightHand -20.692192 -0.000000 -9.810039
RightHandThumb1 -24.326973 -0.000000 -32.862282
LeftUpLeg -2.674038 -8.274638 0.131792
LeftLeg 0.306307 -0.000000 -0.000000
LeftFoot -14.183118 11.263819 -24.356598
LeftToeBase 8.679455 -0.000000 -0.000000
RightUpLeg 3.806928 -11.880930 -2.603326
RightLeg -3.634633 -0.000000 0.000000
RightFoot -17.653022 -19.096753 11.388755
RightToeBase 5.199311 -0.000000 -0.000000
2036
root -1.582864 31.891746 -5.568289 7.753593 20.679876 4.387762
Spine -7.053262 -8.940836 -6.339843
Head 1.716309 -34.286834 2.212253
LeftShoulder -12.259938 14.773435 9.348180
LeftArm 24.458990 42.428198 -73.510290
LeftForeArm -1.824859 -0.000000 10.970995
LeftHand -11.260167 -0.000000 -6.447173
LeftHandThumb1 -26.253704 0.000000 33.147579
RightShoulder -19.393550 30.962515 -56.160403
RightArm 55.303605 60.277960 63.569716
RightForeArm 32.754108 -0.000000 12.910414
RightHand -22.843791 -0.000000 -12.483744
RightHandThumb1 -24.326973 -0.000000 -32.862282
LeftUpLeg -2.642318 -8.199993 0.165957
LeftLeg 0.325675 -0.000000 -0.000000
LeftFoot -14.245797 11.354704 -24.352181
LeftToeBase 8.614757 -0.000000 -0.000000
RightUpLeg 3.779589 -11.806050 -2.570754
RightLeg -3.599488 -0.000000 0.000000
RightFoot -17.603662 -18.996250 11.347825
RightToeBase 5.156071 -0.000000 -0.000000
2037
root -1.589258 31.893433 -5.571261 7.716281 20.507975 4.323391
Spine -7.116693 -8.906048 -6.361704
Head 1.738263 -34.756782 2.109163
LeftShoulder -12.180085 14.839144 9.367290
LeftArm 24.542851 42.564589 -73.372853
LeftForeArm -2.028803 -0.000000 10.993649
LeftHand -11.305741 0.000000 -6.431790
LeftHandThumb1 -26.253704 0.000000 33.147579
RightShoulder -19.049778 31.155339 -55.965305
RightArm 55.303204 60.521584 64.725424
RightForeArm 33.299694 -0.000000 13.339792
RightHand -24.338598 -0.000000 -14.279245
RightHandThumb1 -24.326973 -0.000000 -32.862282
LeftUpLeg -2.629206 -8.105061 0.209571
LeftLeg 0.355139 -0.000000 -0.000000
LeftFoot -14.320707 11.416342 -24.371967
LeftToeBase 8.674902 -0.000000 -0.000000
RightUpLeg 3.730978 -11.776459 -2.528221
RightLeg -3.546602 -0.000000 0.000000
RightFoot -17.561525 -18.844404 11.321855
RightToeBase 5.188082 -0.000000 -0.000000
2038
root -1.594948 31.895079 -5.576040 7.689463 20.343442 4.266576
Spine -7.179311 -8.839509 -6.410549
Head 1.869214 -35.049114 2.043046
LeftShoulder -12.120708 14.752326 9.446499
LeftArm 24.507621 42.732106 -73.357538
LeftForeArm -2.152766 -0.000000 10.986203
LeftHand -11.412492 -0.000000 -6.654949
LeftHandThumb1 -26.253704 0.000000 33.147579
RightShoulder -18.586724 31.201488 -55.502127
RightArm 55.468874 60.807414 65.636424
RightForeArm 33.631530 -0.000000 13.560665
RightHand -24.866234 -0.000000 -15.441738
RightHandThumb1 -24.326973 -0.000000 -32.862282
LeftUpLeg -2.625876 -8.050386 0.247104
LeftLeg 0.378243 -0.000000 -0.000000
LeftFoot -14.394192 11.511807 -24.433626
LeftToeBase 8.713277 -0.000000 -0.000000
RightUpLeg 3.676956 -11.728651 -2.491444
RightLeg -3.498052 -0.000000 0.000000
RightFoot -17.516926 -18.727785 11.281662
RightToeBase 5.134635 -0.000000 -0.000000
2039
root -1.597469 31.897202 -5.582690 7.674198 20.178751 4.246877
Spine -7.210389 -8.746304 -6.487228
Head 1.846413 -35.335219 2.025423
LeftShoulder -12.064351 14.713879 9.523386
LeftArm 24.551805 42.842155 -73.315454
LeftForeArm -2.212466 -0.000000 10.991807
LeftHand -11.464884 -0.000000 -6.848896
LeftHandThumb1 -26.253704 0.000000 33.147579
RightShoulder -18.183749 31.259269 -55.010246
RightArm 55.567534 61.038442 66.292311
RightForeArm 33.412990 -0.000000 13.673606
RightHand -24.807946 -0.000000 -15.721057
RightHandThumb1 -24.326973 -0.000000 -32.862282
LeftUpLeg -2.606563 -8.054190 0.238891
LeftLeg 0.379342 -0.000000 -0.000000
LeftFoot -14.475957 11.703827 -24.469899
LeftToeBase 8.690759 -0.000000 -0.000000
RightUpLeg 3.632243 -11.682024 -2.496657
RightLeg -3.469751 -0.000000 0.000000
RightFoot -17.473387 -18.602596 11.259165
RightToeBase 5.115258 -0.000000 -0.000000
2040
root -1.602540 31.898335 -5.592411 7.678659 19.999520 4.183013
Spine -7.260904 -8.597519 -6.492676
Head 1.732558 -35.594243 2.003840
LeftShoulder -12.016403 14.686070 9.587578
LeftArm 24.722057 43.103057 -73.131112
LeftForeArm -2.428877 -0.000000 11.024049
LeftHand -11.450048 0.000000 -6.875515
LeftHandThumb1 -26.253704 0.000000 33.147579
RightShoulder -17.832148 31.359058 -54.566417
RightArm 55.196510 61.143609 66.330509
RightForeArm 33.003255 -0.000000 13.724240
RightHand -24.192407 0.000000 -15.331953
RightHandThumb1 -24.326973 -0.000000 -32.862282
LeftUpLeg -2.646226 -7.971110 0.284783
LeftLeg 0.406396 -0.000000 -0.000000
LeftFoot -14.500881 11.819675 -24.317314
LeftToeBase 8.628226 -0.000000 -0.000000
RightUpLeg 3.524514 -11.632546 -2.450433
RightLeg -3.402441 -0.000000 0.000000
RightFoot -17.448611 -18.462108 11.233930
RightToeBase 5.138156 -0.000000 -0.000000
2041
root -1.604488 31.898254 -5.597932 7.656430 19.870781 4.141303
Spine -7.251698 -8.451153 -6.513722
Head 1.528107 -35.831343 2.003886
LeftShoulder -11.970430 14.624056 9.682880
LeftArm 24.847237 43.309638 -73.017201
LeftForeArm -2.503559 -0.000000 11.092479
LeftHand -11.539838 0.000000 -7.129901
LeftHandThumb1 -26.253704 0.000000 33.147579
RightShoulder -17.582830 31.547502 -54.221244
RightArm 54.241028 61.102176 65.718058
RightForeArm 32.423733 -0.000000 13.794131
RightHand -23.407354 -0.000000 -14.561014
RightHandThumb1 -24.326973 -0.000000 -32.862282
LeftUpLeg -2.638821 -7.953559 0.308652
LeftLeg 0.414080 -0.000000 -0.000000
LeftFoot -14.594880 11.904575 -24.397298
LeftToeBase 8.684969 -0.000000 -0.000000
RightUpLeg 3.491804 -11.647635 -2.432050
RightLeg -3.383316 -0.000000 0.000000
RightFoot -17.397308 -18.317938 11.185082
RightToeBase 5.080433 -0.000000 -0.000000
2042
root -1.606560 31.898113 -5.605165 7.632807 19.738750 4.103236
Spine -7.232116 -8.289380 -6.530267
Head 1.283783 -36.024789 2.021655
LeftShoulder -11.915817 14.578564 9.803858
LeftArm 25.001000 43.491948 -72.909059
LeftForeArm -2.541160 -0.000000 11.185246
LeftHand -11.478484 0.000000 -7.308156
LeftHandThumb1 -26.253704 0.000000 33.147579
RightShoulder -17.309611 31.573452 -53.851122
RightArm 53.162782 61.006027 64.836664
RightForeArm 31.990534 -0.000000 13.881177
RightHand -22.476247 0.000000 -13.920554
RightHandThumb1 -24.326973 -0.000000 -32.862282
LeftUpLeg -2.630009 -7.922706 0.328406
LeftLeg 0.423620 -0.000000 -0.000000
LeftFoot -14.659832 11.990661 -24.424331
LeftToeBase 8.717315 -0.000000 -0.000000
RightUpLeg 3.457724 -11.627779 -2.417785
RightLeg -3.360704 -0.000000 0.000000
RightFoot -17.359312 -18.187599 11.156744
RightToeBase 5.081157 -0.000000 -0.000000
